<svg xmlns="http://www.w3.org/2000/svg" width="18" height="18"><path fill="#fff" d="M8.229 13.28c-.258-.098-.386-.59-.772-.491-.514 1.768-1.157 3.832-2.186 5.208H3.73h.128c-.257-.688-.128-2.064 0-2.85.386-1.769 1.672-4.127 1.672-5.798 0-.688-.515-1.474-.386-2.358.257-1.572 3.214-2.948 4.114-1.18 1.157 2.064-2.443 4.52-.386 5.897.386.294 1.415.491 2.315.393 4.114-.688 4.628-7.272 1.285-8.746-4.885-2.26-10.285 1.18-9.9 4.717.258 1.376 2.058 2.063.515 3.34C.77 10.628 0 9.449 0 7.385 0 3.257 5.143.505 10.8.997c3.6.294 6.686 2.555 7.2 5.11.257 2.26-.643 5.11-2.829 6.583-1.671 1.081-5.142 1.67-6.942.59z"/></svg>